<svg xmlns="http://www.w3.org/2000/svg" xmlns:xlink="http://www.w3.org/1999/xlink" viewBox="0 0 1588.14 992.14"><defs><style>.cls-1,.cls-4,.cls-6{stroke:#1d1d1b;stroke-miterlimit:10;}.cls-1,.cls-4{stroke-width:8px;}.cls-1{fill:url(#radial-gradient);}.cls-2,.cls-5{isolation:isolate;font-family:MyriadPro-Regular, Myriad Pro;}.cls-2{font-size:250.49px;}.cls-3,.cls-6{fill:none;}.cls-4{fill:url(#radial-gradient-2);}.cls-5{font-size:250.49px;}.cls-6{stroke-width:23px;}.cls-7{fill:#e6007e;}</style><radialGradient id="radial-gradient" cx="-66.71" cy="1633.91" r="292.93" gradientTransform="matrix(0.84, 0, 0, -0.84, 306.02, 2114.27)" gradientUnits="userSpaceOnUse"><stop offset="0" stop-color="#fff"/><stop offset="0.11" stop-color="#d5dff8"/><stop offset="0.3" stop-color="#95afed"/><stop offset="0.47" stop-color="#6086e4"/><stop offset="0.64" stop-color="#3666dd"/><stop offset="0.78" stop-color="#1950d8"/><stop offset="0.91" stop-color="#0642d5"/><stop offset="1" stop-color="#003dd4"/></radialGradient><radialGradient id="radial-gradient-2" cx="411.66" cy="2515.89" r="496.02" gradientTransform="matrix(0.5, 0, 0, -0.5, 1133.98, 1497.75)" gradientUnits="userSpaceOnUse"><stop offset="0" stop-color="#fff"/><stop offset="0.11" stop-color="#ffd5d6"/><stop offset="0.3" stop-color="#ff9598"/><stop offset="0.47" stop-color="#ff6064"/><stop offset="0.64" stop-color="#ff363c"/><stop offset="0.78" stop-color="#ff191f"/><stop offset="0.91" stop-color="#ff060d"/><stop offset="1" stop-color="#ff0007"/></radialGradient></defs><g id="Particles"><circle class="cls-1" cx="250" cy="742.14" r="246"/><text class="cls-2" transform="translate(199.73 815.67) scale(1.31 1)">-</text><line class="cls-3" x1="249.51" y1="741.65" x2="250.5" y2="742.64"/><circle class="cls-4" cx="1338.14" cy="250" r="246"/><text class="cls-5" transform="translate(1240.55 323.52) scale(1.31 1)">+</text><line class="cls-3" x1="1337.65" y1="249.51" x2="1338.64" y2="250.5"/></g><g id="Vectors"><line class="cls-6" x1="310.42" y1="720.82" x2="750.37" y2="523.83"/><path class="cls-7" d="M874.13,526.23a.71.71,0,0,0,.41.92L944,553.63a.71.71,0,0,0,.5-1.33L875,525.82A.71.71,0,0,0,874.13,526.23Z" transform="translate(-193.88 -29.02)"/><path class="cls-6" d="M874.25,525.9a.72.72,0,0,0,.41.92l69.41,26.48a.71.71,0,1,0,.51-1.33l-69.41-26.48A.72.72,0,0,0,874.25,525.9Z" transform="translate(-193.88 -29.02)"/><path class="cls-6" d="M916.85,621.91a.71.71,0,0,0,.41.92.7.7,0,0,0,.91-.41L944.65,553a.71.71,0,0,0-.41-.92.72.72,0,0,0-.92.41Z" transform="translate(-193.88 -29.02)"/><line class="cls-6" x1="1286.8" y1="283.29" x2="846.92" y2="480.41"/><path class="cls-7" d="M1110.92,536a.72.72,0,0,0-.41-.92l-69.42-26.45a.71.71,0,1,0-.51,1.32L1110,536.44A.72.72,0,0,0,1110.92,536Z" transform="translate(-193.88 -29.02)"/><path class="cls-6" d="M1110.79,536.36a.71.71,0,0,0-.41-.92L1041,509a.69.69,0,0,0-.91.41.7.7,0,0,0,.41.91l69.41,26.46A.71.71,0,0,0,1110.79,536.36Z" transform="translate(-193.88 -29.02)"/><path class="cls-6" d="M1068.17,440.36a.71.71,0,0,0-1.33-.5l-26.46,69.41a.72.72,0,0,0,.41.92.71.71,0,0,0,.92-.41Z" transform="translate(-193.88 -29.02)"/></g></svg>