<svg xmlns="http://www.w3.org/2000/svg" xmlns:xlink="http://www.w3.org/1999/xlink" viewBox="0 0 1588.14 992.14"><defs><style>.cls-1,.cls-4,.cls-6{stroke:#1d1d1b;stroke-miterlimit:10;}.cls-1,.cls-4{stroke-width:8px;}.cls-1{fill:url(#radial-gradient);}.cls-2,.cls-5{isolation:isolate;font-family:MyriadPro-Regular, Myriad Pro;}.cls-2{font-size:250.49px;}.cls-3,.cls-6{fill:none;}.cls-4{fill:url(#radial-gradient-2);}.cls-5{font-size:250.49px;}.cls-6{stroke-width:23px;}.cls-7{fill:#e6007e;}</style><radialGradient id="radial-gradient" cx="-100.05" cy="1616.04" r="292.93" gradientTransform="matrix(0.84, 0, 0, -0.84, 334.02, 2099.27)" gradientUnits="userSpaceOnUse"><stop offset="0" stop-color="#fff"/><stop offset="0.11" stop-color="#d5dff8"/><stop offset="0.3" stop-color="#95afed"/><stop offset="0.47" stop-color="#6086e4"/><stop offset="0.64" stop-color="#3666dd"/><stop offset="0.78" stop-color="#1950d8"/><stop offset="0.91" stop-color="#0642d5"/><stop offset="1" stop-color="#003dd4"/></radialGradient><radialGradient id="radial-gradient-2" cx="355.21" cy="2485.64" r="496.02" gradientTransform="matrix(0.5, 0, 0, -0.5, 1161.98, 1482.75)" gradientUnits="userSpaceOnUse"><stop offset="0" stop-color="#fff"/><stop offset="0.11" stop-color="#ffd5d6"/><stop offset="0.3" stop-color="#ff9598"/><stop offset="0.47" stop-color="#ff6064"/><stop offset="0.64" stop-color="#ff363c"/><stop offset="0.78" stop-color="#ff191f"/><stop offset="0.91" stop-color="#ff060d"/><stop offset="1" stop-color="#ff0007"/></radialGradient></defs><g id="Particles"><circle class="cls-1" cx="250" cy="742.14" r="246"/><text class="cls-2" transform="translate(199.73 815.67) scale(1.31 1)">-</text><line class="cls-3" x1="249.51" y1="741.65" x2="250.5" y2="742.64"/><circle class="cls-4" cx="1338.14" cy="250" r="246"/><text class="cls-5" transform="translate(1240.55 323.52) scale(1.31 1)">+</text><line class="cls-3" x1="1337.65" y1="249.51" x2="1338.64" y2="250.5"/></g><g id="Vectors"><line class="cls-6" x1="309.42" y1="715.82" x2="748.69" y2="517.33"/><path class="cls-7" d="M844.36,535a.72.72,0,0,0,.41.92l69.5,26.23a.71.71,0,1,0,.5-1.32l-69.5-26.24A.7.7,0,0,0,844.36,535Z" transform="translate(-165.88 -44.02)"/><path class="cls-6" d="M844.48,534.64a.71.71,0,0,0,.42.91l69.5,26.24a.7.7,0,0,0,.91-.41.69.69,0,0,0-.41-.91l-69.5-26.24A.71.71,0,0,0,844.48,534.64Z" transform="translate(-165.88 -44.02)"/><path class="cls-6" d="M887.41,630.5a.71.71,0,1,0,1.32.51L915,561.5a.71.71,0,1,0-1.32-.5Z" transform="translate(-165.88 -44.02)"/><line class="cls-6" x1="1285.8" y1="274.29" x2="846.55" y2="472.81"/><path class="cls-7" d="M1082.63,543.2a.71.71,0,0,0-.41-.91l-69.51-26.24a.71.71,0,0,0-.5,1.33l69.51,26.24A.72.72,0,0,0,1082.63,543.2Z" transform="translate(-165.88 -44.02)"/><path class="cls-6" d="M1082.5,543.53a.7.7,0,0,0-.41-.91l-69.5-26.23a.71.71,0,1,0-.5,1.32l69.5,26.24A.7.7,0,0,0,1082.5,543.53Z" transform="translate(-165.88 -44.02)"/><path class="cls-6" d="M1039.58,447.67a.71.71,0,0,0-1.33-.5L1012,516.67a.71.71,0,0,0,1.33.51Z" transform="translate(-165.88 -44.02)"/></g></svg>