<svg id="Layer_1" data-name="Layer 1" xmlns="http://www.w3.org/2000/svg" viewBox="0 0 501.05 501.05"><defs><style>.cls-1{fill:none;stroke:#1d1d1b;stroke-miterlimit:10;stroke-width:23px;}.cls-2{fill:#e6007e;}</style></defs><line class="cls-1" x1="8.13" y1="492.92" x2="488.55" y2="12.5"/><path class="cls-2" d="M677.82,216.46a1,1,0,0,0,1,1H783.53a1,1,0,0,0,0-2H678.82a1,1,0,0,0-1,1Z" transform="translate(-294.98 -203.96)"/><path class="cls-1" d="M677.82,216.46a1,1,0,0,0,1,1H783.53a1,1,0,0,0,0-2H678.82a1,1,0,0,0-1,1Z" transform="translate(-294.98 -203.96)"/><path class="cls-1" d="M782.53,321.17a1,1,0,1,0,2,0V216.46a1,1,0,0,0-2,0Z" transform="translate(-294.98 -203.96)"/></svg>