<svg id="a516cfd3-a059-461d-b44d-de2f304669d8" data-name="Vector" xmlns="http://www.w3.org/2000/svg" viewBox="0 0 501.05 501.05"><line id="f4b81d72-486f-4d86-9883-d284d9f6eeed" data-name="Stem" x1="8.13" y1="492.92" x2="488.55" y2="12.5" fill="none" stroke="#1d1d1b" stroke-miterlimit="10" stroke-width="23"/><g id="bb823802-33c3-4239-889f-5eaa47b6c0d9" data-name="Head Hook 1"><path d="M677.82,216.46a1,1,0,0,0,1,1H783.53a1,1,0,0,0,0-2H678.82a1,1,0,0,0-1,1Z" transform="translate(-294.98 -203.96)" fill="#e6007e"/><path d="M677.82,216.46a1,1,0,0,0,1,1H783.53a1,1,0,0,0,0-2H678.82a1,1,0,0,0-1,1Z" transform="translate(-294.98 -203.96)" fill="none" stroke="#1d1d1b" stroke-miterlimit="10" stroke-width="23"/></g><g id="a51abdff-5e8b-4b4b-ab19-f33c940a97e7" data-name="Head Hook 2"><path d="M782.53,321.17a1,1,0,1,0,2,0V216.46a1,1,0,0,0-2,0Z" transform="translate(-294.98 -203.96)" fill="none" stroke="#1d1d1b" stroke-miterlimit="10" stroke-width="23"/></g></svg>