<svg xmlns="http://www.w3.org/2000/svg" xmlns:xlink="http://www.w3.org/1999/xlink" viewBox="0 0 1153.14 863.14"><defs><radialGradient id="f402504b-9ecf-4bb3-a0da-c7322b183c89" cx="235.75" cy="1731.55" r="292.93" gradientTransform="matrix(0.84, 0, 0, -0.84, 52.02, 2067.27)" gradientUnits="userSpaceOnUse"><stop offset="0" stop-color="#fff"/><stop offset="0.11" stop-color="#d5dff8"/><stop offset="0.3" stop-color="#95afed"/><stop offset="0.47" stop-color="#6086e4"/><stop offset="0.64" stop-color="#3666dd"/><stop offset="0.78" stop-color="#1950d8"/><stop offset="0.91" stop-color="#0642d5"/><stop offset="1" stop-color="#003dd4"/></radialGradient><radialGradient id="bdf1e47e-71f6-43c0-87e7-488593bb532b" cx="46.7" cy="2421.12" r="496.02" gradientTransform="matrix(0.5, 0, 0, -0.5, 879.98, 1450.75)" gradientUnits="userSpaceOnUse"><stop offset="0" stop-color="#fff"/><stop offset="0.11" stop-color="#ffd5d6"/><stop offset="0.3" stop-color="#ff9598"/><stop offset="0.47" stop-color="#ff6064"/><stop offset="0.64" stop-color="#ff363c"/><stop offset="0.78" stop-color="#ff191f"/><stop offset="0.91" stop-color="#ff060d"/><stop offset="1" stop-color="#ff0007"/></radialGradient></defs><g id="acc94ef5-76f1-4d23-aa0e-7f81b7e930ae" data-name="Particles"><g id="f43c44aa-49f2-40f6-8ebb-5cd223c38af7" data-name="Electron"><circle id="e1eb7097-cf62-4f0b-89c2-bed2fbd08a2d" data-name="Shell" cx="250" cy="613.14" r="246" stroke="#1d1d1b" stroke-miterlimit="10" stroke-width="8" fill="url(#f402504b-9ecf-4bb3-a0da-c7322b183c89)"/><text transform="translate(199.73 686.67) scale(1.31 1)" font-size="250.49" font-family="MyriadPro-Regular, Myriad Pro" style="isolation:isolate">-</text></g><g id="b7c1248d-a764-4dfe-88b7-81d9edf54d16" data-name="Proton"><circle id="e9ab5ddd-37b0-4add-89df-d9294a3f7e4c" data-name="Shell" cx="903.14" cy="250" r="246" stroke="#1d1d1b" stroke-miterlimit="10" stroke-width="8" fill="url(#bdf1e47e-71f6-43c0-87e7-488593bb532b)"/><text transform="translate(805.55 323.52) scale(1.31 1)" font-size="250.49" font-family="MyriadPro-Regular, Myriad Pro" style="isolation:isolate">+</text></g></g><g id="b1470d66-4cbd-4956-86bc-7866f66bd781" data-name="Vectors"><g id="bdf92aa6-7229-4693-8cac-98fc83a49f27" data-name="Vector N"><line id="b51e4867-cf96-4439-a43f-0b31415e0783" data-name="Stem" x1="251.32" y1="611.3" x2="547.37" y2="446.21" fill="none" stroke="#1d1d1b" stroke-miterlimit="10" stroke-width="10"/><path id="fea1a7cb-0d53-44db-92c0-67c160c796e8" data-name="Head Hook 2" d="M944.55,507.66a.5.5,0,0,0,.35.62l50.25,14.27a.5.5,0,0,0,.62-.34.51.51,0,0,0-.35-.62l-50.25-14.27A.51.51,0,0,0,944.55,507.66Z" transform="translate(-447.88 -76.02)" fill="none" stroke="#1d1d1b" stroke-miterlimit="10" stroke-width="10"/><path id="eacaf9b7-49db-4d78-a0c1-dc574cc9d0e0" data-name="Head Hook 1" d="M980.3,572.3a.5.5,0,0,0,.35.61.48.48,0,0,0,.61-.34l14.28-50.25a.51.51,0,0,0-.35-.62.5.5,0,0,0-.61.34Z" transform="translate(-447.88 -76.02)" fill="none" stroke="#1d1d1b" stroke-miterlimit="10" stroke-width="10"/></g><g id="ea853e5b-8fbf-4dcd-bae6-16a50fefd62a" data-name="Vector P"><line id="a1a92c30-a25b-4e6f-b1c1-ffa198f4049c" data-name="Stem" x1="903.16" y1="249.98" x2="607.11" y2="415.07" fill="none" stroke="#1d1d1b" stroke-miterlimit="10" stroke-width="10"/><path id="b5b0c245-ae13-4a3b-9be3-ab08bd1510e5" data-name="Head Hook 2" d="M1105.67,505.65a.49.49,0,0,0-.34-.61l-50.26-14.27a.48.48,0,0,0-.61.34.5.5,0,0,0,.34.62L1105.05,506A.51.51,0,0,0,1105.67,505.65Z" transform="translate(-447.88 -76.02)" fill="none" stroke="#1d1d1b" stroke-miterlimit="10" stroke-width="10"/><path id="abd2798a-7f28-40a2-a626-01fcfaa5e637" data-name="Head Hook 1" d="M1069.92,441a.51.51,0,0,0-.35-.62.5.5,0,0,0-.61.35L1054.69,491a.5.5,0,0,0,.34.62.51.51,0,0,0,.62-.35Z" transform="translate(-447.88 -76.02)" fill="none" stroke="#1d1d1b" stroke-miterlimit="10" stroke-width="10"/></g></g></svg>